<svg width="40" height="40" viewBox="0 0 40 40" fill="none" xmlns="http://www.w3.org/2000/svg">
<rect width="40" height="40" rx="20" fill="white"/>
<path d="M20.0001 33C19.8588 33 19.7174 32.9706 19.5854 32.9106C19.1494 32.712 8.88813 27.9533 7.2428 19.4787C6.6068 16.2 7.24547 13.0013 8.9508 10.924C10.3308 9.24131 12.3147 8.34663 14.6894 8.33463C14.7014 8.33463 14.7134 8.33463 14.7241 8.33463C17.4334 8.33463 19.0855 9.87733 19.9988 11.1907C20.9162 9.872 22.5814 8.32263 25.3081 8.33463C27.6841 8.34663 29.6694 9.24131 31.0507 10.924C32.7534 13 33.3907 16.1986 32.7534 19.48C31.1107 27.9546 20.8481 32.7147 20.4121 32.912C20.2827 32.9707 20.1415 33 20.0001 33ZM14.7228 10.3333C14.7148 10.3333 14.7082 10.3333 14.7002 10.3333C12.9162 10.3413 11.5029 10.9666 10.4975 12.192C9.16552 13.8146 8.68416 16.396 9.20683 19.0973C10.4802 25.6627 18.1241 29.9293 20.0001 30.8866C21.8761 29.9293 29.5201 25.6627 30.7921 19.0973C31.3174 16.3947 30.8361 13.8133 29.5068 12.192C28.5015 10.968 27.0881 10.344 25.3001 10.3346C25.2921 10.3346 25.2841 10.3346 25.2775 10.3346C22.1148 10.3346 20.9935 13.504 20.9482 13.6387C20.8095 14.0427 20.4281 14.3173 20.0014 14.3173C19.9988 14.3173 19.9974 14.3173 19.9961 14.3173C19.5681 14.316 19.1867 14.0426 19.0507 13.636C19.0067 13.5026 17.8841 10.3333 14.7228 10.3333Z" fill="#1F2226"/>
</svg>
