<svg width="106" height="26" viewBox="0 0 106 26" fill="none" xmlns="http://www.w3.org/2000/svg">
<path d="M13.7215 7.447L15.178 10.3847C15.2875 10.606 15.499 10.759 15.7442 10.7943L19.1064 11.2802C19.7229 11.3695 19.969 12.1255 19.5227 12.559L17.092 14.9178C16.9142 15.0903 16.8332 15.3385 16.8752 15.5822L17.4309 18.8103C17.5434 19.465 16.8557 19.9645 16.2662 19.6562L13.3502 18.13C13.1312 18.0153 12.8702 18.0153 12.6519 18.13L9.73819 19.6547C9.14794 19.9637 8.45792 19.4635 8.57117 18.8072L9.12698 15.5822C9.16898 15.3385 9.08794 15.0903 8.91019 14.9178L6.47946 12.559C6.03246 12.1255 6.27841 11.3695 6.89566 11.2802L10.2579 10.7943C10.5024 10.759 10.7139 10.606 10.8242 10.3847L12.2807 7.447C12.5739 6.85075 13.426 6.85075 13.7215 7.447Z" fill="#FAC91E"/>
<path d="M33.7215 7.447L35.178 10.3847C35.2875 10.606 35.499 10.759 35.7442 10.7943L39.1064 11.2802C39.7229 11.3695 39.969 12.1255 39.5227 12.559L37.092 14.9178C36.9142 15.0903 36.8332 15.3385 36.8752 15.5822L37.4309 18.8103C37.5434 19.465 36.8557 19.9645 36.2662 19.6562L33.3502 18.13C33.1312 18.0153 32.8702 18.0153 32.6519 18.13L29.7382 19.6547C29.1479 19.9637 28.4579 19.4635 28.5712 18.8072L29.127 15.5822C29.169 15.3385 29.0879 15.0903 28.9102 14.9178L26.4795 12.559C26.0325 12.1255 26.2784 11.3695 26.8957 11.2802L30.2579 10.7943C30.5024 10.759 30.7139 10.606 30.8242 10.3847L32.2807 7.447C32.5739 6.85075 33.426 6.85075 33.7215 7.447Z" fill="#FAC91E"/>
<path d="M53.7215 7.447L55.178 10.3847C55.2875 10.606 55.499 10.759 55.7442 10.7943L59.1064 11.2802C59.7229 11.3695 59.969 12.1255 59.5227 12.559L57.092 14.9178C56.9142 15.0903 56.8332 15.3385 56.8752 15.5822L57.4309 18.8103C57.5434 19.465 56.8557 19.9645 56.2662 19.6562L53.3502 18.13C53.1312 18.0153 52.8702 18.0153 52.6519 18.13L49.7382 19.6547C49.1479 19.9637 48.4579 19.4635 48.5712 18.8072L49.127 15.5822C49.169 15.3385 49.0879 15.0903 48.9102 14.9178L46.4795 12.559C46.0325 12.1255 46.2784 11.3695 46.8957 11.2802L50.2579 10.7943C50.5024 10.759 50.7139 10.606 50.8242 10.3847L52.2807 7.447C52.5739 6.85075 53.426 6.85075 53.7215 7.447Z" fill="#FAC91E"/>
<path d="M73.7215 7.447L75.178 10.3847C75.2875 10.606 75.499 10.759 75.7442 10.7943L79.1064 11.2802C79.7229 11.3695 79.969 12.1255 79.5227 12.559L77.092 14.9178C76.9142 15.0903 76.8332 15.3385 76.8752 15.5822L77.4309 18.8103C77.5434 19.465 76.8557 19.9645 76.2662 19.6562L73.3502 18.13C73.1312 18.0153 72.8702 18.0153 72.6519 18.13L69.7382 19.6547C69.1479 19.9637 68.4579 19.4635 68.5712 18.8072L69.127 15.5822C69.169 15.3385 69.0879 15.0903 68.9102 14.9178L66.4795 12.559C66.0325 12.1255 66.2784 11.3695 66.8957 11.2802L70.2579 10.7943C70.5024 10.759 70.7139 10.606 70.8242 10.3847L72.2807 7.447C72.5739 6.85075 73.426 6.85075 73.7215 7.447Z" fill="#FAC91E"/>
<path d="M93.7215 7.447L95.178 10.3847C95.2875 10.606 95.499 10.759 95.7442 10.7943L99.1064 11.2802C99.7229 11.3695 99.969 12.1255 99.5227 12.559L97.092 14.9178C96.9142 15.0903 96.8332 15.3385 96.8752 15.5822L97.4309 18.8103C97.5434 19.465 96.8557 19.9645 96.2662 19.6562L93.3502 18.13C93.1312 18.0153 92.8702 18.0153 92.6519 18.13L89.7382 19.6547C89.1479 19.9637 88.4579 19.4635 88.5712 18.8072L89.127 15.5822C89.169 15.3385 89.0879 15.0903 88.9102 14.9178L86.4795 12.559C86.0325 12.1255 86.2784 11.3695 86.8957 11.2802L90.2579 10.7943C90.5024 10.759 90.7139 10.606 90.8242 10.3847L92.2807 7.447C92.5739 6.85075 93.426 6.85075 93.7215 7.447Z" fill="#FAC91E"/>
</svg>
