<svg width="23" height="23" viewBox="0 0 23 23" fill="none" xmlns="http://www.w3.org/2000/svg">
<path d="M22.4934 21.2567L18.0122 16.7755C19.5102 14.9987 20.4167 12.7085 20.4167 10.2083C20.4167 4.57917 15.8375 0 10.2083 0C4.57917 0 0 4.57917 0 10.2083C0 15.8375 4.57917 20.4167 10.2083 20.4167C12.7085 20.4167 14.9987 19.5102 16.7755 18.0122L21.2566 22.4933C21.427 22.6637 21.651 22.75 21.875 22.75C22.099 22.75 22.323 22.6648 22.4934 22.4933C22.8352 22.1527 22.8352 21.5985 22.4934 21.2567ZM1.75 10.2083C1.75 5.544 5.544 1.75 10.2083 1.75C14.8727 1.75 18.6667 5.544 18.6667 10.2083C18.6667 14.8727 14.8727 18.6667 10.2083 18.6667C5.544 18.6667 1.75 14.8727 1.75 10.2083Z" fill="white"/>
</svg>
